<svg width="25" height="26" viewBox="0 0 25 26" fill="none" xmlns="http://www.w3.org/2000/svg">
<g clip-path="url(#clip0_1_1491)">
<path d="M24.5022 6.94336C24.3608 6.4115 24.0823 5.92609 23.6944 5.53571C23.3065 5.14533 22.8229 4.86367 22.2919 4.71893C20.3374 4.19336 12.5249 4.19336 12.5249 4.19336C12.5249 4.19336 4.7124 4.19336 2.75786 4.71893C2.22691 4.86367 1.7433 5.14533 1.35541 5.53571C0.967523 5.92609 0.688971 6.4115 0.54763 6.94336C0.0249024 8.90643 0.0249023 13.0002 0.0249023 13.0002C0.0249023 13.0002 0.0249024 17.0939 0.54763 19.057C0.688971 19.5889 0.967523 20.0743 1.35541 20.4646C1.7433 20.855 2.22691 21.1367 2.75786 21.2814C4.7124 21.807 12.5249 21.807 12.5249 21.807C12.5249 21.807 20.3374 21.807 22.2919 21.2814C22.8229 21.1367 23.3065 20.855 23.6944 20.4646C24.0823 20.0743 24.3608 19.5889 24.5022 19.057C25.0249 17.0939 25.0249 13.0002 25.0249 13.0002C25.0249 13.0002 25.0249 8.90643 24.5022 6.94336Z" fill="#002026"/>
<path d="M9.96777 16.7169V9.28223L16.5019 12.9996L9.96777 16.7169Z" fill="#FFD375"/>
</g>
<defs>
<clipPath id="clip0_1_1491">
<rect width="25" height="25" fill="white" transform="translate(0 0.5)"/>
</clipPath>
</defs>
</svg>
